<svg id="visual" viewBox="0 0 900 600" width="900" height="600" xmlns="http://www.w3.org/2000/svg" xmlns:xlink="http://www.w3.org/1999/xlink" version="1.1"><path d="M0 121L82 127L164 223L245 127L327 163L409 157L491 217L573 151L655 223L736 157L818 187L900 91L900 0L818 0L736 0L655 0L573 0L491 0L409 0L327 0L245 0L164 0L82 0L0 0Z" fill="#395b64"></path><path d="M0 157L82 169L164 271L245 205L327 217L409 211L491 283L573 211L655 277L736 217L818 271L900 127L900 89L818 185L736 155L655 221L573 149L491 215L409 155L327 161L245 125L164 221L82 125L0 119Z" fill="#365157"></path><path d="M0 253L82 265L164 349L245 313L327 325L409 307L491 391L573 283L655 373L736 295L818 325L900 223L900 125L818 269L736 215L655 275L573 209L491 281L409 209L327 215L245 203L164 269L82 167L0 155Z" fill="#33474a"></path><path d="M0 475L82 499L164 541L245 457L327 463L409 487L491 487L573 499L655 469L736 505L818 457L900 469L900 221L818 323L736 293L655 371L573 281L491 389L409 305L327 323L245 311L164 347L82 263L0 251Z" fill="#303d3e"></path><path d="M0 601L82 601L164 601L245 601L327 601L409 601L491 601L573 601L655 601L736 601L818 601L900 601L900 467L818 455L736 503L655 467L573 497L491 485L409 485L327 461L245 455L164 539L82 497L0 473Z" fill="#2c3333"></path></svg>